<svg xmlns="http://www.w3.org/2000/svg" viewBox="0 0 512 512">
  <defs>
    <linearGradient id="sea" x1="0" y1="0" x2="0" y2="1"><stop offset="0" stop-color="#7fdcf0"/><stop offset="1" stop-color="#2f9fd0"/></linearGradient>
    <linearGradient id="grass" x1="0" y1="0" x2="0" y2="1"><stop offset="0" stop-color="#8fe36a"/><stop offset="1" stop-color="#4fb04a"/></linearGradient>
  </defs>
  <rect width="512" height="512" rx="112" fill="url(#sea)"/>
  <ellipse cx="256" cy="350" rx="190" ry="70" fill="#f3d79a"/>
  <ellipse cx="256" cy="330" rx="170" ry="60" fill="url(#grass)"/>
  <path d="M170 300 Q256 170 342 300" fill="none" stroke="#fff" stroke-width="16" stroke-linecap="round" stroke-dasharray="2 30"/>
  <rect x="120" y="230" width="90" height="100" rx="22" fill="#ff7aa8"/>
  <circle cx="150" cy="275" r="11" fill="#fff"/><circle cx="182" cy="275" r="11" fill="#fff"/>
  <circle cx="152" cy="277" r="5" fill="#26203b"/><circle cx="184" cy="277" r="5" fill="#26203b"/>
  <ellipse cx="348" cy="300" rx="50" ry="16" fill="#5b8cff"/>
  <rect x="298" y="240" width="100" height="60" fill="#5b8cff"/>
  <ellipse cx="348" cy="270" rx="50" ry="16" fill="#7aa5ff"/>
  <ellipse cx="348" cy="240" rx="50" ry="16" fill="#9cbcff"/>
  <circle cx="333" cy="282" r="10" fill="#fff"/><circle cx="363" cy="282" r="10" fill="#fff"/>
  <circle cx="335" cy="284" r="4.5" fill="#26203b"/><circle cx="365" cy="284" r="4.5" fill="#26203b"/>
  <circle cx="256" cy="190" r="26" fill="#ffd24a"/>
  <circle cx="248" cy="186" r="5" fill="#26203b"/><circle cx="266" cy="186" r="5" fill="#26203b"/>
</svg>
